<svg width="123" height="32" viewBox="0 0 123 32" fill="none" xmlns="http://www.w3.org/2000/svg"><path d="M38.092 31.656c-.341 0-.616-.104-.825-.313-.19-.19-.284-.455-.284-.796V17.12c.019-1.48.37-2.807 1.052-3.982a7.712 7.712 0 0 1 2.816-2.816c1.195-.683 2.532-1.024 4.01-1.024 1.518 0 2.874.35 4.068 1.052a7.436 7.436 0 0 1 2.816 2.816c.702 1.195 1.053 2.55 1.053 4.068 0 1.498-.342 2.844-1.024 4.039a7.565 7.565 0 0 1-2.73 2.844c-1.157.683-2.466 1.024-3.926 1.024-1.27 0-2.427-.265-3.47-.796-1.024-.55-1.85-1.27-2.475-2.162v8.363c0 .341-.104.607-.313.796-.19.209-.446.313-.768.313Zm6.77-8.505c1.1 0 2.086-.256 2.958-.768a5.46 5.46 0 0 0 2.048-2.105c.512-.91.768-1.924.768-3.043 0-1.138-.256-2.153-.768-3.044a5.461 5.461 0 0 0-2.048-2.105c-.872-.53-1.858-.796-2.958-.796-1.081 0-2.058.265-2.93.796a5.461 5.461 0 0 0-2.048 2.105c-.493.891-.74 1.906-.74 3.044 0 1.119.247 2.133.74 3.043a5.46 5.46 0 0 0 2.048 2.105c.872.512 1.849.768 2.93.768Zm12.914-4.494c-.34 0-.616-.104-.824-.313-.19-.209-.285-.474-.285-.796V3.894c0-.341.095-.607.285-.796.208-.209.483-.313.825-.313.322 0 .578.104.767.313.21.19.313.455.313.796v13.654c0 .322-.104.587-.313.796-.19.209-.445.313-.767.313ZM70.008 25c-.323 0-.588-.104-.797-.313a1.044 1.044 0 0 1-.313-.768v-7.395c0-1.176-.227-2.143-.682-2.902a4.164 4.164 0 0 0-1.82-1.706c-.76-.38-1.622-.57-2.59-.57-.928 0-1.772.18-2.53.541-.74.36-1.328.853-1.764 1.48a3.64 3.64 0 0 0-.655 2.133h-1.564c.038-1.195.36-2.257.967-3.186a6.332 6.332 0 0 1 2.418-2.219c1.005-.55 2.124-.825 3.356-.825 1.347 0 2.55.285 3.613.854 1.062.55 1.896 1.365 2.503 2.446.626 1.08.938 2.399.938 3.954v7.395c0 .303-.104.56-.312.768a1.044 1.044 0 0 1-.768.313Zm-12.231 0c-.342 0-.617-.095-.825-.284-.19-.209-.285-.475-.285-.797V10.55c0-.341.095-.607.285-.796.208-.209.483-.313.825-.313.322 0 .578.104.767.313.21.19.313.455.313.796v13.37c0 .321-.104.587-.313.796-.19.19-.445.284-.767.284Zm24.796.142c-1.517 0-2.873-.341-4.067-1.024a7.435 7.435 0 0 1-2.816-2.816c-.683-1.194-1.024-2.55-1.024-4.067 0-1.536.341-2.902 1.024-4.096a7.435 7.435 0 0 1 2.816-2.816c1.194-.683 2.55-1.024 4.067-1.024 1.517 0 2.864.341 4.04 1.024a7.435 7.435 0 0 1 2.815 2.816c.683 1.194 1.034 2.56 1.053 4.096 0 1.517-.351 2.873-1.053 4.067a7.435 7.435 0 0 1-2.816 2.816c-1.175.683-2.522 1.024-4.039 1.024Zm0-1.99c1.1 0 2.086-.257 2.958-.769a5.46 5.46 0 0 0 2.048-2.105c.494-.891.74-1.906.74-3.043 0-1.138-.246-2.153-.74-3.044a5.409 5.409 0 0 0-2.048-2.133c-.872-.512-1.858-.768-2.958-.768s-2.086.256-2.958.768a5.613 5.613 0 0 0-2.076 2.133c-.493.891-.74 1.906-.74 3.044 0 1.137.246 2.152.74 3.043a5.671 5.671 0 0 0 2.076 2.105c.872.512 1.858.768 2.958.768ZM100.401 25c-1.005 0-1.906-.237-2.702-.711a5.177 5.177 0 0 1-1.85-1.934c-.454-.835-.682-1.783-.682-2.845V5.6c0-.321.095-.587.285-.796.208-.208.474-.312.796-.312.322 0 .588.104.796.312.21.209.313.475.313.797v13.91c0 .966.285 1.763.854 2.389.569.606 1.299.91 2.19.91h.768c.303 0 .55.104.74.313.189.208.284.474.284.796 0 .322-.114.588-.341.797-.228.19-.512.284-.854.284h-.597Zm-7.083-13.084c-.284 0-.521-.086-.71-.256a.931.931 0 0 1-.285-.683c0-.285.095-.512.284-.683a.965.965 0 0 1 .711-.284h7.254c.284 0 .521.095.711.284.189.17.284.398.284.683a.933.933 0 0 1-.284.683c-.19.17-.427.256-.711.256h-7.254Zm19.096 13.226c-1.517 0-2.873-.341-4.067-1.024a7.43 7.43 0 0 1-2.816-2.816c-.683-1.194-1.024-2.55-1.024-4.067 0-1.536.341-2.902 1.024-4.096a7.43 7.43 0 0 1 2.816-2.816c1.194-.683 2.55-1.024 4.067-1.024 1.517 0 2.864.341 4.039 1.024a7.43 7.43 0 0 1 2.816 2.816c.683 1.194 1.034 2.56 1.053 4.096 0 1.517-.351 2.873-1.053 4.067a7.43 7.43 0 0 1-2.816 2.816c-1.175.683-2.522 1.024-4.039 1.024Zm0-1.99c1.1 0 2.086-.257 2.959-.769a5.463 5.463 0 0 0 2.048-2.105c.493-.891.739-1.906.739-3.043 0-1.138-.246-2.153-.739-3.044a5.41 5.41 0 0 0-2.048-2.133c-.873-.512-1.859-.768-2.959-.768s-2.086.256-2.958.768a5.613 5.613 0 0 0-2.076 2.133c-.493.891-.74 1.906-.74 3.044 0 1.137.247 2.152.74 3.043a5.672 5.672 0 0 0 2.076 2.105c.872.512 1.858.768 2.958.768Z" fill="black"/><path fill-rule="evenodd" clip-rule="evenodd" d="M15.846 2.963H0l6.672 6.672h15.846l-6.672-6.672ZM6.672 9.635v15.847L0 18.809V2.963l6.672 6.672Z" fill="#CCCCCC"/><path fill-rule="evenodd" clip-rule="evenodd" d="M6.672 25.482h15.846l-6.672-6.673H0l6.672 6.672Zm9.174-6.673V2.963l6.673 6.672v15.847l-6.673-6.673Z" fill="black"/></svg>